PathFileType	4	(x/y/z)	TRC_MarkerData\Passive\Passive_Pref0002.trc
DataRate	CameraRate	NumFrames	NumMarkers	Units	OrigDataRate	OrigDataStartFrame	OrigNumFrames
240	240	4	50	mm	240	152	303
Frame#	Time	R_AC			L_AC			HEAD			STERN			C7			L_IC			R_IC			L_ASIS			R_ASIS			L_GT			R_GT			L_PSIS			R_PSIS			SACRAL			L_LAT_KNEE			L_MED_KNEE			R_LAT_KNEE			R_MED_KNEE			L_LAT_ANK			L_MED_ANK			R_LAT_ANK			R_MED_ANK			L_THIGH_PROX_POST			L_THIGH_PROX_ANT			L_THIGH_DIST_ANT			L_THIGH_DIST_POST			R_THIGH_PROX_POST			R_THIGH_PROX_ANT			R_THIGH_DIST_ANT			R_THIGH_DIST_POST			L_SHANK_PROX_POST			L_SHANK_PROX_ANT			L_SHANK_DIST_ANT			L_SHANK_DIST_POST			R_SHANK_PROX_POST			R_SHANK_PROX_ANT			R_SHANK_DIST_ANT			R_SHANK_DIST_POST			L_HEEL_LAT			L_HEEL_SUP			L_HEEL_MED			R_HEEL_LAT			R_HEEL_SUP			R_HEEL_MED			L_1ST_MET			L_5TH_MET			L_TOE			R_1ST_MET			R_5TH_MET			R_TOE			
		X1	Y1	Z1	X2	Y2	Z2	X3	Y3	Z3	X4	Y4	Z4	X5	Y5	Z5	X6	Y6	Z6	X7	Y7	Z7	X8	Y8	Z8	X9	Y9	Z9	X10	Y10	Z10	X11	Y11	Z11	X12	Y12	Z12	X13	Y13	Z13	X14	Y14	Z14	X15	Y15	Z15	X16	Y16	Z16	X17	Y17	Z17	X18	Y18	Z18	X19	Y19	Z19	X20	Y20	Z20	X21	Y21	Z21	X22	Y22	Z22	X23	Y23	Z23	X24	Y24	Z24	X25	Y25	Z25	X26	Y26	Z26	X27	Y27	Z27	X28	Y28	Z28	X29	Y29	Z29	X30	Y30	Z30	X31	Y31	Z31	X32	Y32	Z32	X33	Y33	Z33	X34	Y34	Z34	X35	Y35	Z35	X36	Y36	Z36	X37	Y37	Z37	X38	Y38	Z38	X39	Y39	Z39	X40	Y40	Z40	X41	Y41	Z41	X42	Y42	Z42	X43	Y43	Z43	X44	Y44	Z44	X45	Y45	Z45	X46	Y46	Z46	X47	Y47	Z47	X48	Y48	Z48	X49	Y49	Z49	X50	Y50	Z50	
 
152	0.63125	-79.618	1496.8	488.87	-92.077	1523.1	98.738	18.636	1810.7	311.94	10.865	1467.1	291.18	-132.42	1555.4	298.5	-120.46	1069	126	-82.121	1080.9	466.18	-57.696	1000.2	146.26	-16.71	1007.4	414.64	-167.39	936.35	110.89	-86.124	939.54	481.54	-246.16	1036.2	269.63	-224.14	1028	374.57	-249.77	1007.7	324.49	-277.43	546.13	153.13	-260.5	552.21	289.25	75.088	547.76	443.12	87.831	552.02	315.66	-512.02	154.87	180.86	-518.17	159.15	259.68	211.41	102.71	396.77	232.92	141.14	302.6	-235.07	806.53	131.63	-176.39	778.89	119.41	-200.78	708.52	131.99	-258.08	737.14	143.31	-43.682	762.84	476.14	19.012	790.07	474.39	42.288	719.35	465.53	-20.959	691.82	462.73	-294.04	495.55	162.35	-249.41	492.43	175.5	-269.23	446.69	183.37	-320.16	448.64	169.5	57.414	372.63	431.43	116.52	404.53	451.94	150.33	338.85	441.88	92.893	304.89	422.31	-598.74	92.376	183.69	-604.62	119.7	217.82	-604.15	88.664	250.06	183.37	26.298	360	170.03	48.007	323.24	200.66	35.566	295.5	-383.83	47.789	287.71	-396.33	44.321	182.14	-329.95	45.704	266.34	392.08	154.91	339.19	356.41	112.42	437.38	417.1	179.31	397.28
153	0.63543	-73.551	1495.6	489.87	-85.636	1522.1	99.746	24.542	1809.8	312.83	17.145	1466.1	292.23	-126.22	1554.4	299.49	-113.52	1068	126.25	-75.659	1079.6	466.64	-50.904	998.94	146.53	-9.9883	1006.8	414.91	-160.82	935.17	111.11	-79.145	938.78	481.81	-239.32	1034.9	269.9	-217.53	1026.7	374.76	-243.12	1006.4	324.66	-272.25	545.43	153.45	-255.26	551.32	289.55	83.474	547.58	442.44	95.339	551.84	315.15	-510.51	156.33	180.98	-516.63	160.62	259.85	214.6	101.71	395.87	236.26	138.94	301.28	-228.99	805.73	131.91	-170.39	777.91	119.66	-195	707.62	132.27	-252.2	736.42	143.67	-36.072	762.21	475.99	26.484	789.67	474.3	50.024	719.05	465.18	-13.167	691.34	462.27	-289.34	495.01	162.65	-244.74	491.48	175.8	-265	445.92	183.66	-315.89	448.35	169.77	64.436	372.59	431.28	124.07	403.93	451.06	157.1	337.9	440.82	99.131	304.48	421.96	-597.85	94.686	183.81	-603.3	122.04	218.05	-603.3	91.001	250.19	184.72	26.155	359.67	171.79	47.854	322.75	201.93	34.337	295	-383.41	47.899	287.77	-395.98	44.533	182.17	-329.6	45.311	266.39	395.74	150.2	336.94	359.6	109.17	435.61	421.56	174.49	394.79
154	0.63961	-67.498	1494.4	490.88	-79.194	1521.1	100.76	30.455	1808.9	313.72	23.43	1465.2	293.3	-120.02	1553.3	300.48	-106.52	1067.1	126.48	-69.168	1078.4	467.09	-44.075	997.73	146.8	-3.2499	1006.2	415.19	-154.19	933.99	111.33	-72.15	938.07	482.07	-232.46	1033.6	270.13	-210.91	1025.5	374.93	-236.47	1005.1	324.81	-266.93	544.71	153.79	-249.87	550.39	289.86	91.8	547.44	441.8	102.74	551.66	314.63	-508.92	157.87	181.11	-514.99	162.18	260.02	217.67	100.79	395.03	239.48	136.8	300.03	-222.83	804.92	132.21	-164.31	776.92	119.92	-189.12	706.7	132.58	-246.23	735.67	144.05	-28.475	761.62	475.88	33.952	789.3	474.25	57.733	718.77	464.86	-5.4069	690.89	461.84	-284.51	494.45	162.97	-239.95	490.5	176.12	-260.65	445.13	183.97	-311.49	448.05	170.05	71.416	372.62	431.21	131.58	403.38	450.22	163.82	337.01	439.8	105.32	304.13	421.68	-596.87	97.145	183.93	-601.87	124.53	218.26	-602.36	93.49	250.32	185.9	26.142	359.42	173.4	47.841	322.35	203	33.237	294.58	-382.98	48.027	287.84	-395.6	44.769	182.19	-329.25	44.902	266.45	399.27	145.4	334.72	362.68	105.86	433.87	425.92	169.55	392.32
155	0.64379	-61.459	1493.3	491.9	-72.754	1520.2	101.78	36.375	1808.1	314.62	29.72	1464.3	294.38	-113.82	1552.3	301.48	-99.463	1066.1	126.71	-62.654	1077.2	467.54	-37.214	996.52	147.07	3.4988	1005.6	415.47	-147.51	932.8	111.56	-65.148	937.41	482.34	-225.61	1032.3	270.33	-204.29	1024.3	375.09	-229.8	1003.8	324.95	-261.44	543.96	154.15	-244.32	549.42	290.19	100.06	547.33	441.2	110.03	551.49	314.11	-507.24	159.48	181.26	-513.26	163.83	260.2	220.64	99.958	394.27	242.58	134.74	298.85	-216.59	804.08	132.54	-158.14	775.94	120.21	-183.13	705.77	132.9	-240.16	734.89	144.45	-20.897	761.09	475.79	41.412	788.96	474.22	65.411	718.51	464.6	2.3189	690.49	461.45	-279.52	493.87	163.3	-235.02	489.49	176.47	-256.17	444.32	184.3	-306.96	447.74	170.35	78.345	372.7	431.19	139.03	402.9	449.43	170.48	336.19	438.84	111.45	303.84	421.45	-595.8	99.762	184.06	-600.32	127.17	218.47	-601.33	96.141	250.46	186.95	26.25	359.24	174.86	47.962	322.04	203.92	32.275	294.24	-382.52	48.174	287.9	-395.2	45.034	182.22	-328.88	44.476	266.5	402.67	140.57	332.55	365.65	102.52	432.17	430.18	164.53	389.9
